<svg width="20" height="14" viewBox="0 0 20 14" fill="none" xmlns="http://www.w3.org/2000/svg">
<path fill-rule="evenodd" clip-rule="evenodd" d="M9.9924 0C3.74715 0 0 6.86977 0 6.86977C0 6.86977 1.05952 8.81223 2.99076 10.6314L1 12L2 13L4.08611 11.5658L6.71254 9.76013L7.75235 9.04526L12.8258 5.55726L13.8656 4.84242L16.7349 2.86974L18 2L17 1L15.608 1.957C14.0826 0.852561 12.1925 0 9.9924 0ZM11.9733 4.45584L13.0322 3.72789C12.2176 2.93974 11.1277 2.4981 9.9924 2.4981C8.83296 2.4981 7.721 2.95868 6.90116 3.77853C6.08131 4.59838 5.62072 5.71033 5.62072 6.86977C5.62072 7.46429 5.74182 8.04631 5.97036 8.58288L7.02924 7.8549C6.92455 7.54007 6.86975 7.20771 6.86975 6.86969C6.86975 6.04152 7.19874 5.24727 7.78435 4.66167C8.36995 4.07606 9.1642 3.74707 9.99237 3.74707C10.7179 3.74707 11.4173 3.99955 11.9733 4.45584ZM9.9924 13.7395C8.22689 13.7395 6.66103 13.1905 5.32303 12.4029L7.83811 10.6738C8.48947 11.0427 9.23068 11.2414 9.9924 11.2414C11.1518 11.2414 12.2638 10.7809 13.0836 9.96101C13.9035 9.14116 14.3641 8.02921 14.3641 6.86977C14.3641 6.65112 14.3477 6.43415 14.3156 6.22052L17.7439 3.86359C19.1977 5.42685 19.9848 6.86977 19.9848 6.86977C19.9848 6.86977 16.2376 13.7395 9.9924 13.7395ZM9.99237 9.99232C9.66749 9.99232 9.34783 9.94169 9.04393 9.8448L13.1098 7.0495C13.0659 7.81211 12.7435 8.53464 12.2004 9.07772C11.6148 9.66333 10.8205 9.99232 9.99237 9.99232Z" fill="#9A9A9E"/>
</svg>
