<svg width="20" height="14" viewBox="0 0 20 14" fill="none" xmlns="http://www.w3.org/2000/svg">
<path d="M13.115 6.86969C13.115 7.69787 12.786 8.49212 12.2004 9.07772C11.6148 9.66333 10.8205 9.99232 9.99236 9.99232C9.16419 9.99232 8.36994 9.66333 7.78433 9.07772C7.19873 8.49212 6.86974 7.69787 6.86974 6.86969C6.86974 6.04152 7.19873 5.24727 7.78433 4.66167C8.36994 4.07606 9.16419 3.74707 9.99236 3.74707C10.8205 3.74707 11.6148 4.07606 12.2004 4.66167C12.786 5.24727 13.115 6.04152 13.115 6.86969V6.86969Z" fill="#9A9A9E"/>
<path fill-rule="evenodd" clip-rule="evenodd" d="M0 6.86977C0 6.86977 3.74715 0 9.9924 0C16.2376 0 19.9848 6.86977 19.9848 6.86977C19.9848 6.86977 16.2376 13.7395 9.9924 13.7395C3.74715 13.7395 0 6.86977 0 6.86977ZM9.9924 11.2414C11.1518 11.2414 12.2638 10.7809 13.0836 9.96101C13.9035 9.14116 14.3641 8.02921 14.3641 6.86977C14.3641 5.71033 13.9035 4.59838 13.0836 3.77853C12.2638 2.95868 11.1518 2.4981 9.9924 2.4981C8.83296 2.4981 7.721 2.95868 6.90116 3.77853C6.08131 4.59838 5.62072 5.71033 5.62072 6.86977C5.62072 8.02921 6.08131 9.14116 6.90116 9.96101C7.721 10.7809 8.83296 11.2414 9.9924 11.2414V11.2414Z" fill="#9A9A9E"/>
</svg>
