<svg width="15" height="15" viewBox="0 0 15 15" fill="none" xmlns="http://www.w3.org/2000/svg">
<path d="M1.45284 7.15566H6.27359C6.45624 7.15566 6.63141 7.08311 6.76056 6.95395C6.88972 6.8248 6.96227 6.64963 6.96227 6.46698V1.64623C6.96227 1.46358 6.88972 1.28841 6.76056 1.15926C6.63141 1.03011 6.45624 0.95755 6.27359 0.95755H1.45284C1.27019 0.95755 1.09502 1.03011 0.96587 1.15926C0.836717 1.28841 0.76416 1.46358 0.76416 1.64623V6.46698C0.76416 6.64963 0.836717 6.8248 0.96587 6.95395C1.09502 7.08311 1.27019 7.15566 1.45284 7.15566ZM2.14152 2.33491H5.58492V5.77831H2.14152V2.33491Z" fill="#F5F5F5"/>
<path d="M9.0284 7.15566H13.8492C14.0318 7.15566 14.207 7.08311 14.3361 6.95395C14.4653 6.8248 14.5378 6.64963 14.5378 6.46698V1.64623C14.5378 1.46358 14.4653 1.28841 14.3361 1.15926C14.207 1.03011 14.0318 0.95755 13.8492 0.95755H9.0284C8.84575 0.95755 8.67058 1.03011 8.54143 1.15926C8.41228 1.28841 8.33972 1.46358 8.33972 1.64623V6.46698C8.33972 6.64963 8.41228 6.8248 8.54143 6.95395C8.67058 7.08311 8.84575 7.15566 9.0284 7.15566ZM9.71708 2.33491H13.1605V5.77831H9.71708V2.33491Z" fill="#F5F5F5"/>
<path d="M1.45284 14.7309H6.27359C6.45624 14.7309 6.63141 14.6584 6.76056 14.5292C6.88972 14.4001 6.96227 14.2249 6.96227 14.0422V9.22149C6.96227 9.03884 6.88972 8.86367 6.76056 8.73452C6.63141 8.60536 6.45624 8.53281 6.27359 8.53281H1.45284C1.27019 8.53281 1.09502 8.60536 0.96587 8.73452C0.836717 8.86367 0.76416 9.03884 0.76416 9.22149V14.0422C0.76416 14.2249 0.836717 14.4001 0.96587 14.5292C1.09502 14.6584 1.27019 14.7309 1.45284 14.7309ZM2.14152 9.91016H5.58492V13.3536H2.14152V9.91016Z" fill="#F5F5F5"/>
<path d="M9.0284 14.7309H13.8492C14.0318 14.7309 14.207 14.6584 14.3361 14.5292C14.4653 14.4001 14.5378 14.2249 14.5378 14.0422V9.22149C14.5378 9.03884 14.4653 8.86367 14.3361 8.73452C14.207 8.60536 14.0318 8.53281 13.8492 8.53281H9.0284C8.84575 8.53281 8.67058 8.60536 8.54143 8.73452C8.41228 8.86367 8.33972 9.03884 8.33972 9.22149V14.0422C8.33972 14.2249 8.41228 14.4001 8.54143 14.5292C8.67058 14.6584 8.84575 14.7309 9.0284 14.7309ZM9.71708 9.91016H13.1605V13.3536H9.71708V9.91016Z" fill="#F5F5F5"/>
</svg>
