<svg width="15" height="14" viewBox="0 0 15 14" fill="none" xmlns="http://www.w3.org/2000/svg">
<path d="M1.15108 2.0236H13.5473C13.73 2.0236 13.9051 1.95104 14.0343 1.82189C14.1634 1.69273 14.236 1.51757 14.236 1.33492C14.236 1.15227 14.1634 0.977101 14.0343 0.847949C13.9051 0.718797 13.73 0.64624 13.5473 0.64624H1.15108C0.968433 0.64624 0.793264 0.718797 0.664112 0.847949C0.534959 0.977101 0.462402 1.15227 0.462402 1.33492C0.462402 1.51757 0.534959 1.69273 0.664112 1.82189C0.793264 1.95104 0.968433 2.0236 1.15108 2.0236V2.0236Z" fill="white"/>
<path d="M1.15108 7.53314H13.5473C13.73 7.53314 13.9051 7.46059 14.0343 7.33143C14.1634 7.20228 14.236 7.02711 14.236 6.84446C14.236 6.66181 14.1634 6.48664 14.0343 6.35749C13.9051 6.22833 13.73 6.15578 13.5473 6.15578H1.15108C0.968433 6.15578 0.793264 6.22833 0.664112 6.35749C0.534959 6.48664 0.462402 6.66181 0.462402 6.84446C0.462402 7.02711 0.534959 7.20228 0.664112 7.33143C0.793264 7.46059 0.968433 7.53314 1.15108 7.53314V7.53314Z" fill="white"/>
<path d="M1.15108 13.0424H13.5473C13.73 13.0424 13.9051 12.9698 14.0343 12.8407C14.1634 12.7115 14.236 12.5363 14.236 12.3537C14.236 12.171 14.1634 11.9959 14.0343 11.8667C13.9051 11.7376 13.73 11.665 13.5473 11.665H1.15108C0.968433 11.665 0.793264 11.7376 0.664112 11.8667C0.534959 11.9959 0.462402 12.171 0.462402 12.3537C0.462402 12.5363 0.534959 12.7115 0.664112 12.8407C0.793264 12.9698 0.968433 13.0424 1.15108 13.0424V13.0424Z" fill="white"/>
</svg>
