<svg width="15" height="19" viewBox="0 0 15 19" fill="none" xmlns="http://www.w3.org/2000/svg">
<path d="M7.01594 14.0319C7.98063 14.0319 8.76993 13.2426 8.76993 12.2779C8.76993 11.3132 7.98063 10.5239 7.01594 10.5239C6.05125 10.5239 5.26196 11.3132 5.26196 12.2779C5.26196 13.2426 6.05125 14.0319 7.01594 14.0319ZM12.2779 6.13895H11.4009V4.38496C11.4009 1.96446 9.43644 0 7.01594 0C4.59544 0 2.63098 1.96446 2.63098 4.38496H4.29726C4.29726 2.88531 5.51628 1.66629 7.01594 1.66629C8.5156 1.66629 9.73462 2.88531 9.73462 4.38496V6.13895H1.75399C0.789293 6.13895 0 6.92824 0 7.89293V16.6629C0 17.6276 0.789293 18.4168 1.75399 18.4168H12.2779C13.2426 18.4168 14.0319 17.6276 14.0319 16.6629V7.89293C14.0319 6.92824 13.2426 6.13895 12.2779 6.13895ZM12.2779 16.6629H1.75399V7.89293H12.2779V16.6629Z" fill="#9A9A9E"/>
</svg>
