<svg width="18" height="18" viewBox="0 0 18 18" fill="none" xmlns="http://www.w3.org/2000/svg">
<path fill-rule="evenodd" clip-rule="evenodd" d="M9.3503 1.2517L8.89295 0.972168L8.43559 1.2517L0.963182 5.81881L0.962901 5.81898L0.96274 5.81908C0.70673 5.97545 0.495101 6.19487 0.348084 6.45637C0.200982 6.71802 0.12349 7.01304 0.123023 7.3132L0.123022 7.31457V7.68306C0.122812 7.69413 0.122812 7.7052 0.123022 7.71625V16.0319C0.123022 16.4971 0.307815 16.9432 0.636752 17.2721C0.965689 17.6011 1.41182 17.7859 1.87701 17.7859H15.9089C16.3741 17.7859 16.8202 17.6011 17.1491 17.2721C17.4781 16.9432 17.6629 16.4971 17.6629 16.0319V7.7125C17.663 7.70394 17.663 7.69538 17.6629 7.68681V7.31457V7.3132C17.6624 7.01304 17.5849 6.71802 17.4378 6.45637C17.2907 6.19471 17.0789 5.97519 16.8227 5.81881L9.3503 1.2517ZM15.8211 7.26227L8.89295 3.02782L1.96477 7.26229L8.89292 11.4962L15.8211 7.26227ZM1.87701 9.26423L1.87701 16.0319H15.9089L15.9089 9.2642L9.35023 13.2723L8.89292 13.5517L8.43561 13.2723L1.87701 9.26423Z" fill="#9A9A9E"/>
</svg>
