<svg width="17" height="18" viewBox="0 0 17 18" fill="none" xmlns="http://www.w3.org/2000/svg">
<path opacity="0.5" d="M16.0882 14.4649C15.6682 13.4699 15.0586 12.5662 14.2935 11.8039C13.5307 11.0395 12.6271 10.4301 11.6325 10.0092C11.6236 10.0047 11.6147 10.0025 11.6058 9.99806C12.9931 8.99603 13.8949 7.36383 13.8949 5.52231C13.8949 2.47168 11.4232 0 8.3726 0C5.32196 0 2.85028 2.47168 2.85028 5.52231C2.85028 7.36383 3.75211 8.99603 5.13937 10.0003C5.13046 10.0047 5.12156 10.007 5.11265 10.0114C4.11507 10.4323 3.21992 11.0357 2.4517 11.8062C1.68728 12.569 1.07781 13.4726 0.656944 14.4671C0.243488 15.4408 0.0205014 16.4847 5.56818e-05 17.5423C-0.000538646 17.566 0.00362987 17.5897 0.0123157 17.6118C0.0210016 17.6339 0.034029 17.6541 0.0506303 17.6711C0.0672316 17.6881 0.0870709 17.7016 0.108979 17.7109C0.130888 17.7201 0.154422 17.7249 0.178195 17.7248H1.51424C1.61222 17.7248 1.69015 17.6469 1.69238 17.5512C1.73691 15.8321 2.4272 14.2222 3.64745 13.0019C4.91002 11.7394 6.58675 11.0446 8.3726 11.0446C10.1584 11.0446 11.8352 11.7394 13.0977 13.0019C14.318 14.2222 15.0083 15.8321 15.0528 17.5512C15.055 17.6491 15.133 17.7248 15.231 17.7248H16.567C16.5908 17.7249 16.6143 17.7201 16.6362 17.7109C16.6581 17.7016 16.678 17.6881 16.6946 17.6711C16.7112 17.6541 16.7242 17.6339 16.7329 17.6118C16.7416 17.5897 16.7457 17.566 16.7451 17.5423C16.7229 16.4779 16.5024 15.4424 16.0882 14.4649V14.4649ZM8.3726 9.35231C7.35052 9.35231 6.38857 8.95372 5.66488 8.23003C4.94119 7.50634 4.5426 6.54439 4.5426 5.52231C4.5426 4.50024 4.94119 3.53829 5.66488 2.8146C6.38857 2.09091 7.35052 1.69232 8.3726 1.69232C9.39467 1.69232 10.3566 2.09091 11.0803 2.8146C11.804 3.53829 12.2026 4.50024 12.2026 5.52231C12.2026 6.54439 11.804 7.50634 11.0803 8.23003C10.3566 8.95372 9.39467 9.35231 8.3726 9.35231Z" fill="white"/>
</svg>
