<svg width="15" height="15" viewBox="0 0 15 15" fill="none" xmlns="http://www.w3.org/2000/svg">
<path d="M9.75 3.9675V0.75C9.75 0.3375 9.4125 0 9 0H6C5.5875 0 5.25 0.3375 5.25 0.75V3.9675C5.25 4.065 5.2875 4.1625 5.3625 4.23L7.2375 6.105C7.3875 6.255 7.62 6.255 7.77 6.105L9.645 4.23C9.7125 4.1625 9.75 4.0725 9.75 3.9675V3.9675ZM3.9675 5.25H0.75C0.3375 5.25 0 5.5875 0 6V9C0 9.4125 0.3375 9.75 0.75 9.75H3.9675C4.065 9.75 4.1625 9.7125 4.23 9.6375L6.105 7.7625C6.255 7.6125 6.255 7.38 6.105 7.23L4.23 5.355C4.19552 5.32079 4.15451 5.29387 4.10942 5.27583C4.06432 5.2578 4.01606 5.24901 3.9675 5.25V5.25ZM5.25 11.0325V14.25C5.25 14.6625 5.5875 15 6 15H9C9.4125 15 9.75 14.6625 9.75 14.25V11.0325C9.7506 10.9833 9.7409 10.9346 9.72152 10.8893C9.70215 10.8441 9.67353 10.8035 9.6375 10.77L7.7625 8.895C7.6125 8.745 7.38 8.745 7.23 8.895L5.355 10.77C5.2875 10.8375 5.25 10.9275 5.25 11.0325ZM10.7625 5.3625L8.8875 7.2375C8.7375 7.3875 8.7375 7.62 8.8875 7.77L10.7625 9.645C10.83 9.7125 10.9275 9.7575 11.025 9.7575H14.25C14.6625 9.7575 15 9.42 15 9.0075V6.0075C15 5.595 14.6625 5.2575 14.25 5.2575H11.0325C10.9825 5.2537 10.9323 5.26116 10.8856 5.27933C10.8388 5.2975 10.7968 5.32592 10.7625 5.3625V5.3625Z" fill="#9A41F2"/>
</svg>
