<svg width="29" height="21" viewBox="0 0 29 21" fill="none" xmlns="http://www.w3.org/2000/svg">
<path d="M28.7778 15.9081C28.6057 16.5094 27.9787 16.8577 27.3773 16.6856C26.7757 16.5136 26.4277 15.8866 26.5996 15.285C26.793 14.6093 26.7775 13.8976 26.5553 13.2269L24.0048 5.53333C23.5297 4.09983 22.1956 3.13672 20.6853 3.13672H8.31623C6.80574 3.13672 5.47181 4.09983 4.99656 5.53333L2.44619 13.2269C2.15149 14.1164 2.22096 15.0722 2.64222 15.918C3.06282 16.7632 3.78145 17.39 4.66535 17.6832C5.5466 17.9752 6.49223 17.9011 7.32812 17.4743C8.16556 17.0466 8.78948 16.3198 9.0853 15.4277L9.25301 14.9217C9.7256 13.4962 11.0522 12.5382 12.5541 12.5382H16.4472C17.9493 12.5382 19.2759 13.4962 19.7485 14.9217L19.9162 15.4277C20.3913 16.861 21.7559 17.8622 23.2348 17.862C23.5187 17.862 23.8032 17.8268 24.0802 17.7573C24.6871 17.6055 25.3022 17.9743 25.4542 18.581C25.6062 19.1879 25.2373 19.803 24.6305 19.955C24.1736 20.0694 23.7041 20.1274 23.235 20.1274C22.0341 20.1274 20.8769 19.7503 19.8886 19.0368C18.8887 18.3149 18.1546 17.3135 17.7659 16.1406L17.5982 15.6346C17.4334 15.1375 16.9709 14.8036 16.4475 14.8036H12.5543C12.0306 14.8036 11.5682 15.1375 11.4034 15.6344L11.2356 16.1406C10.7513 17.6015 9.72958 18.7917 8.35826 19.4919C6.97832 20.1966 5.41385 20.3179 3.95248 19.8333C2.49155 19.349 1.30586 18.3171 0.614229 16.9276C-0.0754125 15.5423 -0.188472 13.975 0.296069 12.5141L2.84644 4.82045C3.62945 2.45814 5.82759 0.871094 8.31623 0.871094H20.6853C23.174 0.871094 25.3723 2.45814 26.1553 4.82045L28.7057 12.5141C29.0719 13.619 29.0969 14.7925 28.7778 15.9081ZM19.8811 4.949C19.2556 4.949 18.7485 5.45611 18.7485 6.08181C18.7485 6.70729 19.2556 7.2144 19.8811 7.2144C20.5068 7.2144 21.0139 6.70729 21.0139 6.08181C21.0139 5.45611 20.5068 4.949 19.8811 4.949ZM19.8811 11.7454C20.5068 11.7454 21.0139 11.2383 21.0139 10.6126C21.0139 9.98714 20.5068 9.48003 19.8811 9.48003C19.2556 9.48003 18.7485 9.98714 18.7485 10.6126C18.7485 11.2381 19.2556 11.7454 19.8811 11.7454ZM17.6157 7.2144C16.9902 7.2144 16.4831 7.72151 16.4831 8.34721C16.4831 8.97292 16.9902 9.48003 17.6157 9.48003C18.2414 9.48003 18.7485 8.97292 18.7485 8.34721C18.7485 7.72151 18.2414 7.2144 17.6157 7.2144ZM22.1467 9.48003C22.7722 9.48003 23.2793 8.97292 23.2793 8.34721C23.2793 7.72151 22.7722 7.2144 22.1467 7.2144C21.521 7.2144 21.0139 7.72151 21.0139 8.34721C21.0139 8.97269 21.521 9.48003 22.1467 9.48003ZM9.12026 11.7454C9.74596 11.7454 10.2531 11.2383 10.2531 10.6126V9.48003H11.3857C12.0114 9.48003 12.5185 8.97292 12.5185 8.34721C12.5185 7.72151 12.0114 7.2144 11.3857 7.2144H10.2531V6.08181C10.2531 5.45611 9.74596 4.949 9.12026 4.949C8.49478 4.949 7.98767 5.45611 7.98767 6.08181V7.2144H6.85486C6.22938 7.2144 5.72205 7.72151 5.72205 8.34721C5.72205 8.97292 6.22938 9.48003 6.85486 9.48003H7.98767V10.6126C7.98767 11.2381 8.49478 11.7454 9.12026 11.7454Z" fill="#F5F5F5"/>
</svg>
